<svg width="570" height="63" viewBox="0 0 570 63" fill="none" xmlns="http://www.w3.org/2000/svg">
<path d="M43.4307 38.1758L46.0322 33.2617V60H43.4307V38.1758ZM48.6338 28.2031L51.2354 23.2891V60H48.6338V28.2031ZM53.8369 18.375L56.4385 13.4248V60H53.8369V18.375ZM36.3848 36.9473L34.9033 34.2373L52.8252 0.164062H55.752L36.3848 36.9473ZM33.3857 31.2744L31.8682 28.5283L46.8994 0.164062H49.8623L33.3857 31.2744ZM15.9697 33.5508L18.5713 38.4648V60H15.9697V33.5508ZM10.7666 23.6504L13.3682 28.5645V60H10.7666V23.6504ZM5.56348 13.75L8.16504 18.7002V60H5.56348V13.75ZM26.5928 44.3906H23.666L2.96191 5.11426V60H0.360352V0.164062H3.28711L26.5928 44.3906ZM32.4824 44.3906H29.5195L6.25 0.164062H9.21289L32.4824 44.3906ZM59.04 5.11426L38.3359 44.3906H35.373L12.1396 0.164062H15.0664L36.8906 41.6445L58.6787 0.164062H61.6416V60H59.04V5.11426ZM105.435 34.3457C105.435 31.2624 104.483 28.8776 102.58 27.1914C100.677 25.5052 98.1598 24.6621 95.0283 24.6621C92.3786 24.6621 90.1022 25.5775 88.1992 27.4082C86.2962 29.2389 85.3447 31.431 85.3447 33.9844C85.3447 35.4297 85.5374 36.7305 85.9229 37.8867C86.3083 39.0189 86.8262 39.9704 87.4766 40.7412C88.151 41.488 88.946 42.1143 89.8613 42.6201C90.7767 43.1019 91.7282 43.4512 92.7158 43.668C93.7275 43.8848 94.7995 43.9932 95.9316 43.9932C98.6777 43.9932 101.183 43.3187 103.447 41.9697V44.5713C101.111 45.7998 98.5934 46.4141 95.8955 46.4141C94.1611 46.4141 92.5231 46.1852 90.9814 45.7275C89.4639 45.2458 88.0788 44.5352 86.8262 43.5957C85.5736 42.6322 84.5739 41.3314 83.8271 39.6934C83.1045 38.0312 82.7432 36.1283 82.7432 33.9844C82.7432 30.6602 83.9115 27.8418 86.248 25.5293C88.5846 23.2168 91.5114 22.0605 95.0283 22.0605C98.9066 22.0605 102.038 23.1566 104.423 25.3486C106.832 27.5166 108.036 30.5156 108.036 34.3457V60H105.435V34.3457ZM113.239 34.3457V60H110.638V34.3457C110.638 29.793 109.18 26.1797 106.266 23.5059C103.351 20.8079 99.6051 19.459 95.0283 19.459C90.7887 19.459 87.2477 20.8682 84.4053 23.6865C81.5628 26.5049 80.1416 29.9375 80.1416 33.9844C80.1416 36.4414 80.5632 38.6455 81.4062 40.5967C82.2734 42.5479 83.4417 44.1136 84.9111 45.2939C86.3805 46.4743 88.0186 47.3776 89.8252 48.0039C91.6559 48.6061 93.583 48.9072 95.6064 48.9072C98.3525 48.9072 100.966 48.2689 103.447 46.9922V49.7383C100.846 50.8223 98.2201 51.3643 95.5703 51.3643C93.1855 51.3643 90.9212 51.0029 88.7773 50.2803C86.6335 49.5335 84.7184 48.4616 83.0322 47.0645C81.346 45.6432 80.0091 43.8125 79.0215 41.5723C78.0339 39.3079 77.54 36.7786 77.54 33.9844C77.54 29.2389 79.2142 25.2041 82.5625 21.8799C85.9349 18.5316 90.0902 16.8574 95.0283 16.8574C98.4971 16.8574 101.604 17.568 104.351 18.9893C107.097 20.3864 109.265 22.4219 110.854 25.0957C112.444 27.7695 113.239 30.8529 113.239 34.3457ZM118.442 34.3457V60H115.841V34.3457C115.841 30.3711 114.925 26.8542 113.095 23.7949C111.288 20.7116 108.807 18.3509 105.651 16.7129C102.496 15.0749 98.9548 14.2559 95.0283 14.2559C91.2946 14.2559 87.8861 15.1471 84.8027 16.9297C81.7194 18.6882 79.2985 21.0729 77.54 24.084C75.8057 27.0951 74.9385 30.3952 74.9385 33.9844C74.9385 37.0677 75.5046 39.8861 76.6367 42.4395C77.7689 44.9688 79.2865 47.0524 81.1895 48.6904C83.1165 50.3285 85.2965 51.6051 87.7295 52.5205C90.1865 53.4118 92.752 53.8574 95.4258 53.8574C98.1478 53.8574 100.822 53.2913 103.447 52.1592V54.7969C100.701 55.8327 98.0033 56.3506 95.3535 56.3506C91.1862 56.3506 87.3561 55.4111 83.8633 53.5322C80.3704 51.6533 77.5762 48.9915 75.4805 45.5469C73.3848 42.1022 72.3369 38.248 72.3369 33.9844C72.3369 30.9492 72.915 28.0586 74.0713 25.3125C75.2516 22.5664 76.8415 20.1937 78.8408 18.1943C80.8402 16.195 83.249 14.6051 86.0674 13.4248C88.8857 12.2445 91.8727 11.6543 95.0283 11.6543C99.4365 11.6543 103.411 12.5938 106.952 14.4727C110.517 16.3516 113.324 19.0254 115.371 22.4941C117.419 25.9629 118.442 29.9134 118.442 34.3457ZM123.646 34.3457V60H121.044V34.3457C121.044 29.4316 119.9 25.0475 117.611 21.1934C115.323 17.3151 112.203 14.3281 108.253 12.2324C104.302 10.1126 99.8942 9.05273 95.0283 9.05273C90.3551 9.05273 86.0794 10.1729 82.2012 12.4131C78.3229 14.6533 75.2757 17.6885 73.0596 21.5186C70.8434 25.3245 69.7354 29.4798 69.7354 33.9844C69.7354 36.9473 70.2051 39.7656 71.1445 42.4395C72.1081 45.0892 73.4089 47.4137 75.0469 49.4131C76.709 51.3883 78.612 53.0986 80.7559 54.5439C82.9238 55.9893 85.2484 57.0853 87.7295 57.832C90.2347 58.5788 92.776 58.9521 95.3535 58.9521C98.196 58.9521 100.894 58.4102 103.447 57.3262V60C100.773 60.9395 98.0273 61.4092 95.209 61.4092C92.2943 61.4092 89.4518 60.9997 86.6816 60.1807C83.9355 59.3617 81.3822 58.1572 79.0215 56.5674C76.6849 54.9535 74.6253 53.0625 72.8428 50.8945C71.0602 48.7025 69.6631 46.1491 68.6514 43.2344C67.6396 40.3197 67.1338 37.2363 67.1338 33.9844C67.1338 30.2507 67.8324 26.6976 69.2295 23.3252C70.6507 19.9287 72.5778 17.002 75.0107 14.5449C77.4678 12.0638 80.4307 10.1006 83.8994 8.65527C87.3923 7.18587 91.1019 6.45117 95.0283 6.45117C99.027 6.45117 102.785 7.12565 106.302 8.47461C109.819 9.82357 112.854 11.7025 115.407 14.1113C117.961 16.4961 119.972 19.4349 121.441 22.9277C122.911 26.4206 123.646 30.2266 123.646 34.3457ZM149.733 35.1406H165.415C167.487 35.1406 169.245 34.4902 170.69 33.1895C172.136 31.8887 172.858 30.0579 172.858 27.6973C172.858 25.9629 172.1 24.4092 170.582 23.0361C169.089 21.6631 167.366 20.9766 165.415 20.9766H143.085V60H140.483V18.375H165.415C168.089 18.375 170.425 19.3145 172.425 21.1934C174.448 23.0723 175.46 25.2402 175.46 27.6973C175.46 30.7565 174.484 33.2015 172.533 35.0322C170.582 36.8389 168.209 37.7422 165.415 37.7422H149.733V35.1406ZM149.733 40.3438H165.415C168.884 40.3438 171.859 39.1634 174.34 36.8027C176.821 34.4421 178.062 31.4069 178.062 27.6973C178.062 24.5417 176.797 21.7715 174.268 19.3867C171.738 16.9779 168.787 15.7734 165.415 15.7734H137.882V60H135.28V13.1719H165.415C169.51 13.1719 173.075 14.6292 176.11 17.5439C179.146 20.4346 180.663 23.819 180.663 27.6973C180.663 32.0332 179.158 35.6585 176.146 38.5732C173.16 41.488 169.582 42.9453 165.415 42.9453H149.733V40.3438ZM149.733 45.5469H165.415C168.619 45.5469 171.582 44.776 174.304 43.2344C177.026 41.6927 179.194 39.5488 180.808 36.8027C182.446 34.0566 183.265 31.0215 183.265 27.6973C183.265 24.6862 182.458 21.8678 180.844 19.2422C179.23 16.5924 177.038 14.4847 174.268 12.9189C171.521 11.3532 168.571 10.5703 165.415 10.5703H132.679V60H130.077V7.96875H165.415C168.137 7.96875 170.751 8.51074 173.256 9.59473C175.785 10.6546 177.965 12.0758 179.796 13.8584C181.627 15.6169 183.096 17.7126 184.204 20.1455C185.312 22.5785 185.866 25.0957 185.866 27.6973C185.866 31.9128 184.903 35.5983 182.976 38.7539C181.049 41.8854 178.459 44.2702 175.207 45.9082L180.663 60H177.881L172.714 46.9561C172.063 47.1729 171.305 47.3896 170.438 47.6064L175.315 60H172.533L167.764 48.04C167.017 48.1123 166.234 48.1484 165.415 48.1484L170.004 60H167.258L162.705 48.1484H160.356L164.729 60H161.982L157.574 48.1484H149.733V45.5469ZM148.288 60H145.687V23.5781H165.415C166.764 23.5781 167.908 23.9876 168.848 24.8066C169.787 25.6016 170.257 26.5651 170.257 27.6973C170.257 30.9251 168.643 32.5391 165.415 32.5391H149.733V29.9375H165.415C166.909 29.9375 167.655 29.1908 167.655 27.6973C167.655 27.2878 167.426 26.9385 166.969 26.6494C166.535 26.3363 166.017 26.1797 165.415 26.1797H148.288V60ZM246.316 7.96875L231.827 34.2012L246.1 60H243.209L228.937 34.2012L243.426 7.96875H246.316ZM240.499 7.96875L226.01 34.2012L240.282 60H237.392L223.119 34.2012L237.608 7.96875H240.499ZM234.682 7.96875L220.192 34.2012L234.465 60H231.574L217.302 34.2012L231.791 7.96875H234.682ZM228.864 7.96875L214.339 34.2012L228.647 60H225.757L211.448 34.2012L225.974 7.96875H228.864ZM207.257 7.96875V60H209.858V7.96875H207.257ZM202.054 7.96875V60H204.655V7.96875H202.054ZM196.851 7.96875V60H199.452V7.96875H196.851ZM191.647 7.96875V60H194.249V7.96875H191.647ZM263.985 60H261.384V7.96875H263.985V60ZM258.782 60H256.181V7.96875H258.782V60ZM253.579 60H250.978V7.96875H253.579V60ZM269.188 46.9922H294.084V49.5938H269.188V52.1953H294.084V54.7969H269.188V57.3984H294.084V60H266.587V7.96875H294.084V10.5703H269.188V13.1719H294.084V15.7734H269.188V18.375H294.084V20.9766H269.188V27.4443H292.639V30.0459H269.188V32.6475H292.639V35.249H269.188V37.8506H292.639V40.4521H269.188V46.9922ZM309.549 22.3857H312.15V60H309.549V22.3857ZM299.143 10.5703V7.96875H338.166V10.5703H299.143ZM299.143 15.7734V13.1719H338.166V15.7734H299.143ZM299.143 20.9766V18.375H338.166V20.9766H299.143ZM325.158 22.3857H327.76V60H325.158V22.3857ZM319.955 22.3857H322.557V60H319.955V22.3857ZM314.752 22.3857H317.354V60H314.752V22.3857ZM367.831 35.249H363.712C358.653 35.249 354.763 34.2253 352.041 32.1777C349.319 30.1061 347.958 27.2637 347.958 23.6504C347.958 20.278 349.56 17.4717 352.764 15.2314C355.967 12.9671 360.46 11.835 366.241 11.835C370.095 11.835 373.685 12.3649 377.009 13.4248C380.357 14.4847 383.139 15.9782 385.355 17.9053L383.332 19.5312C381.357 17.9173 378.876 16.6647 375.889 15.7734C372.902 14.8822 369.686 14.4365 366.241 14.4365C361.159 14.4365 357.268 15.3037 354.57 17.0381C351.896 18.7725 350.56 20.9766 350.56 23.6504C350.56 26.541 351.656 28.7692 353.848 30.335C356.064 31.8766 359.352 32.6475 363.712 32.6475H367.687C372.817 32.6475 376.744 33.6833 379.466 35.7549C382.212 37.8024 383.585 40.6328 383.585 44.2461C383.585 47.6185 381.983 50.4368 378.779 52.7012C375.576 54.9414 371.083 56.0615 365.302 56.0615C361.448 56.0615 357.846 55.5316 354.498 54.4717C351.174 53.4118 348.404 51.9183 346.188 49.9912L348.211 48.3652C350.186 49.9792 352.667 51.2318 355.654 52.123C358.641 53.0143 361.857 53.46 365.302 53.46C370.384 53.46 374.263 52.5928 376.937 50.8584C379.634 49.124 380.983 46.9199 380.983 44.2461C380.983 41.3555 379.875 39.1393 377.659 37.5977C375.467 36.0319 372.191 35.249 367.831 35.249ZM367.831 40.4521H363.712C357.015 40.4521 351.848 38.9346 348.211 35.8994C344.574 32.8402 342.755 28.7572 342.755 23.6504C342.755 21.3138 343.273 19.1217 344.309 17.0742C345.344 15.0267 346.826 13.2321 348.753 11.6904C350.704 10.1247 353.185 8.89616 356.196 8.00488C359.207 7.08952 362.556 6.63184 366.241 6.63184C370.89 6.63184 375.238 7.34245 379.285 8.76367C383.332 10.1608 386.704 12.124 389.402 14.6533L387.307 16.207C384.85 13.9909 381.778 12.2806 378.093 11.0762C374.407 9.84766 370.457 9.2334 366.241 9.2334C359.737 9.2334 354.631 10.6064 350.921 13.3525C347.211 16.0986 345.356 19.5312 345.356 23.6504C345.356 28.0104 346.946 31.4671 350.126 34.0205C353.306 36.5739 357.834 37.8506 363.712 37.8506H367.687C374.817 37.8506 378.382 39.9824 378.382 44.2461C378.382 46.1732 377.286 47.763 375.094 49.0156C372.926 50.2441 369.662 50.8584 365.302 50.8584C362.243 50.8584 359.4 50.5091 356.774 49.8105C354.149 49.0879 351.981 48.0641 350.271 46.7393L352.33 45.1494C355.341 47.221 359.665 48.2568 365.302 48.2568C368.915 48.2568 371.565 47.8835 373.251 47.1367C374.937 46.39 375.78 45.4264 375.78 44.2461C375.78 42.873 375.19 41.8975 374.01 41.3193C372.829 40.7412 370.77 40.4521 367.831 40.4521ZM367.831 30.0459H363.712C356.678 30.0459 353.161 27.9141 353.161 23.6504C353.161 21.7233 354.245 20.1455 356.413 18.917C358.605 17.6644 361.881 17.0381 366.241 17.0381C369.3 17.0381 372.143 17.3994 374.769 18.1221C377.394 18.8206 379.562 19.8324 381.272 21.1572L379.213 22.7471C376.202 20.6755 371.878 19.6396 366.241 19.6396C362.628 19.6396 359.978 20.013 358.292 20.7598C356.606 21.5065 355.763 22.4701 355.763 23.6504C355.763 25.0234 356.353 25.999 357.533 26.5771C358.714 27.1553 360.773 27.4443 363.712 27.4443H367.831C374.528 27.4443 379.695 28.974 383.332 32.0332C386.969 35.0684 388.788 39.1393 388.788 44.2461C388.788 46.5827 388.27 48.7747 387.234 50.8223C386.199 52.8698 384.705 54.6764 382.754 56.2422C380.827 57.7839 378.358 59.0124 375.347 59.9277C372.336 60.819 368.987 61.2646 365.302 61.2646C360.653 61.2646 356.305 60.5661 352.258 59.1689C348.211 57.7477 344.839 55.7725 342.141 53.2432L344.236 51.6895C346.693 53.9056 349.765 55.6279 353.45 56.8564C357.136 58.0609 361.086 58.6631 365.302 58.6631C371.806 58.6631 376.912 57.29 380.622 54.5439C384.332 51.7979 386.187 48.3652 386.187 44.2461C386.187 39.8861 384.597 36.4294 381.417 33.876C378.237 31.3226 373.709 30.0459 367.831 30.0459ZM446.564 7.96875H449.166V60H446.564V7.96875ZM394.497 7.96875H397.099V60H394.497V7.96875ZM441.361 7.96875H443.963V60H441.361V7.96875ZM436.158 7.96875H438.76V60H436.158V7.96875ZM430.955 7.96875H433.557V60H430.955V39.1875H412.708V60H410.106V7.96875H412.708V26.1797H430.955V7.96875ZM404.903 7.96875H407.505V60H404.903V7.96875ZM399.7 7.96875H402.302V60H399.7V7.96875ZM430.955 36.5859V33.9844H412.708V36.5859H430.955ZM430.955 31.3828V28.7812H412.708V31.3828H430.955ZM475.868 26.6494C473.845 28.6729 472.833 31.1178 472.833 33.9844C472.833 36.8509 473.845 39.3079 475.868 41.3555C477.916 43.3789 480.373 44.3906 483.239 44.3906C486.106 44.3906 488.551 43.3789 490.574 41.3555C492.622 39.3079 493.646 36.8509 493.646 33.9844C493.646 31.1178 492.622 28.6729 490.574 26.6494C488.551 24.6019 486.106 23.5781 483.239 23.5781C480.373 23.5781 477.916 24.6019 475.868 26.6494ZM474.025 43.1982C471.496 40.6449 470.231 37.5736 470.231 33.9844C470.231 30.3952 471.496 27.3359 474.025 24.8066C476.579 22.2533 479.65 20.9766 483.239 20.9766C486.828 20.9766 489.888 22.2533 492.417 24.8066C494.97 27.3359 496.247 30.3952 496.247 33.9844C496.247 37.5736 494.97 40.6449 492.417 43.1982C489.888 45.7275 486.828 46.9922 483.239 46.9922C479.65 46.9922 476.579 45.7275 474.025 43.1982ZM472.183 22.9639C469.147 26.0231 467.63 29.6966 467.63 33.9844C467.63 38.2721 469.147 41.9456 472.183 45.0049C475.242 48.0641 478.927 49.5938 483.239 49.5938C487.551 49.5938 491.225 48.0641 494.26 45.0049C497.319 41.9456 498.849 38.2721 498.849 33.9844C498.849 29.6966 497.319 26.0231 494.26 22.9639C491.225 19.9046 487.551 18.375 483.239 18.375C478.927 18.375 475.242 19.9046 472.183 22.9639ZM467.449 43.126C465.835 40.3317 465.028 37.2845 465.028 33.9844C465.028 30.6842 465.835 27.637 467.449 24.8428C469.087 22.0485 471.303 19.8444 474.098 18.2305C476.892 16.5924 479.939 15.7734 483.239 15.7734C486.539 15.7734 489.587 16.5924 492.381 18.2305C495.175 19.8444 497.379 22.0485 498.993 24.8428C500.631 27.637 501.45 30.6842 501.45 33.9844C501.45 37.2845 500.631 40.3317 498.993 43.126C497.379 45.9202 495.175 48.1364 492.381 49.7744C489.587 51.3883 486.539 52.1953 483.239 52.1953C479.939 52.1953 476.892 51.3883 474.098 49.7744C471.303 48.1364 469.087 45.9202 467.449 43.126ZM464.053 25.9268C462.969 28.4801 462.427 31.166 462.427 33.9844C462.427 36.8027 462.969 39.5007 464.053 42.0781C465.161 44.6315 466.642 46.8477 468.497 48.7266C470.376 50.5814 472.592 52.0628 475.146 53.1709C477.723 54.2549 480.421 54.7969 483.239 54.7969C486.058 54.7969 488.743 54.2549 491.297 53.1709C493.874 52.0628 496.09 50.5814 497.945 48.7266C499.824 46.8477 501.306 44.6315 502.39 42.0781C503.498 39.5007 504.052 36.8027 504.052 33.9844C504.052 31.166 503.498 28.4801 502.39 25.9268C501.306 23.3493 499.824 21.1331 497.945 19.2783C496.09 17.3994 493.874 15.918 491.297 14.834C488.743 13.7259 486.058 13.1719 483.239 13.1719C480.421 13.1719 477.723 13.7259 475.146 14.834C472.592 15.918 470.376 17.3994 468.497 19.2783C466.642 21.1331 465.161 23.3493 464.053 25.9268ZM461.668 43.0898C460.439 40.1992 459.825 37.1641 459.825 33.9844C459.825 30.8047 460.439 27.7695 461.668 24.8789C462.921 21.9883 464.583 19.5072 466.654 17.4355C468.75 15.3398 471.243 13.6777 474.134 12.4492C477.024 11.1966 480.06 10.5703 483.239 10.5703C486.419 10.5703 489.454 11.1966 492.345 12.4492C495.235 13.6777 497.716 15.3398 499.788 17.4355C501.884 19.5072 503.546 21.9883 504.774 24.8789C506.027 27.7695 506.653 30.8047 506.653 33.9844C506.653 37.1641 506.027 40.1992 504.774 43.0898C503.546 45.9805 501.884 48.4736 499.788 50.5693C497.716 52.641 495.235 54.3031 492.345 55.5557C489.454 56.7842 486.419 57.3984 483.239 57.3984C480.06 57.3984 477.024 56.7842 474.134 55.5557C471.243 54.3031 468.75 52.641 466.654 50.5693C464.583 48.4736 462.921 45.9805 461.668 43.0898ZM459.283 23.9033C457.91 27.1071 457.224 30.4674 457.224 33.9844C457.224 37.5013 457.91 40.8737 459.283 44.1016C460.656 47.3053 462.499 50.0755 464.812 52.4121C467.148 54.7246 469.918 56.5674 473.122 57.9404C476.35 59.3135 479.722 60 483.239 60C486.756 60 490.117 59.3135 493.32 57.9404C496.548 56.5674 499.318 54.7246 501.631 52.4121C503.967 50.0755 505.822 47.3053 507.195 44.1016C508.568 40.8737 509.255 37.5013 509.255 33.9844C509.255 30.4674 508.568 27.1071 507.195 23.9033C505.822 20.6755 503.967 17.9053 501.631 15.5928C499.318 13.2562 496.548 11.4014 493.32 10.0283C490.117 8.65527 486.756 7.96875 483.239 7.96875C479.722 7.96875 476.35 8.65527 473.122 10.0283C469.918 11.4014 467.148 13.2562 464.812 15.5928C462.499 17.9053 460.656 20.6755 459.283 23.9033ZM456.898 45.1133C455.381 41.5723 454.622 37.8626 454.622 33.9844C454.622 30.1061 455.381 26.4085 456.898 22.8916C458.416 19.3506 460.451 16.3034 463.005 13.75C465.558 11.1966 468.593 9.16113 472.11 7.64355C475.651 6.12598 479.361 5.36719 483.239 5.36719C487.118 5.36719 490.815 6.12598 494.332 7.64355C497.873 9.16113 500.92 11.1966 503.474 13.75C506.027 16.3034 508.062 19.3506 509.58 22.8916C511.098 26.4085 511.856 30.1061 511.856 33.9844C511.856 37.8626 511.098 41.5723 509.58 45.1133C508.062 48.6302 506.027 51.6654 503.474 54.2188C500.92 56.7721 497.873 58.8076 494.332 60.3252C490.815 61.8428 487.118 62.6016 483.239 62.6016C479.361 62.6016 475.651 61.8428 472.11 60.3252C468.593 58.8076 465.558 56.7721 463.005 54.2188C460.451 51.6654 458.416 48.6302 456.898 45.1133ZM537.908 35.502H548.929C551.097 35.502 552.939 34.8516 554.457 33.5508C555.975 32.25 556.733 30.4193 556.733 28.0586C556.733 26.2279 555.938 24.5898 554.349 23.1445C552.759 21.6992 550.952 20.9766 548.929 20.9766H530.718V60H528.116V18.375H548.929C551.699 18.375 554.12 19.3506 556.191 21.3018C558.287 23.2529 559.335 25.5052 559.335 28.0586C559.335 31.1178 558.323 33.5628 556.3 35.3936C554.276 37.2002 551.819 38.1035 548.929 38.1035H537.908V35.502ZM537.908 40.7051H548.929C552.494 40.7051 555.553 39.5247 558.106 37.1641C560.66 34.8034 561.937 31.7682 561.937 28.0586C561.937 24.8066 560.636 21.9521 558.034 19.4951C555.433 17.014 552.397 15.7734 548.929 15.7734H525.515V60H522.913V13.1719H548.929C553.12 13.1719 556.77 14.6654 559.877 17.6523C562.984 20.6152 564.538 24.084 564.538 28.0586C564.538 32.3945 562.996 36.0199 559.913 38.9346C556.854 41.8493 553.192 43.3066 548.929 43.3066H537.908V40.7051ZM537.908 45.9082H548.929C552.181 45.9082 555.192 45.1374 557.962 43.5957C560.756 42.054 562.984 39.9102 564.646 37.1641C566.309 34.418 567.14 31.3828 567.14 28.0586C567.14 24.9993 566.309 22.1208 564.646 19.4229C563.008 16.7249 560.78 14.5811 557.962 12.9912C555.168 11.3773 552.157 10.5703 548.929 10.5703H520.312V60H517.71V7.96875H548.929C551.675 7.96875 554.325 8.51074 556.878 9.59473C559.455 10.6787 561.684 12.1361 563.562 13.9668C565.441 15.7734 566.935 17.9173 568.043 20.3984C569.175 22.8555 569.741 25.4089 569.741 28.0586C569.741 31.166 569.187 34.0205 568.079 36.6221C566.971 39.2236 565.465 41.3916 563.562 43.126C561.66 44.8363 559.443 46.1611 556.914 47.1006C554.409 48.04 551.747 48.5098 548.929 48.5098H537.908V45.9082ZM535.921 60H533.319V23.5781H548.929C550.35 23.5781 551.566 24.0238 552.578 24.915C553.614 25.7822 554.132 26.8301 554.132 28.0586C554.132 31.2865 552.397 32.9004 548.929 32.9004H537.908V30.2988H548.929C550.663 30.2988 551.53 29.5521 551.53 28.0586C551.53 27.5286 551.277 27.083 550.771 26.7217C550.266 26.3604 549.651 26.1797 548.929 26.1797H535.921V60Z" fill="black"/>
</svg>
